{
  "source": "C:\\Users\\Peter\\Desktop\\stuff\\MIUN\\quantitative_research\\video_compression\\videos\\BVI-HD\\BVI-HD_CDVL_videos\\ORIG\\MartialArts_1920x1080_60fps.mp4",
  "output": "C:\\Users\\Peter\\Desktop\\stuff\\MIUN\\quantitative_research\\video_compression\\compressed_videos\\BVI-HD\\h264\\1\\MartialArts_1920x1080_60fps_h264.mp4",
  "codec": "h264",
  "ok": "Input #0, mov,mp4,m4a,3gp,3g2,mj2, from 'C:\\Users\\Peter\\Desktop\\stuff\\MIUN\\quantitative_research\\video_compression\\videos\\BVI-HD\\BVI-HD_CDVL_videos\\ORIG\\MartialArts_1920x1080_60fps.mp4':\n  Metadata:\n    major_brand     : isom\n    minor_version   : 512\n    compatible_brands: isomiso2avc1mp41\n    encoder         : Lavf54.28.101\n  Duration: 00:00:05.00, start: 0.000000, bitrate: 120609 kb/s\n  Stream #0:0[0x1](und): Video: h264 (High 4:4:4 Predictive) (avc1 / 0x31637661), yuv420p(progressive), 1920x1080, 120605 kb/s, 60 fps, 60 tbr, 60 tbn (default)\n    Metadata:\n      handler_name    : VideoHandler\n      vendor_id       : [0][0][0][0]\n[out#0/mp4 @ 000002386a6c9ac0] Codec AVOption b:a (set bitrate (in bits/s)) has not been used for any stream. The most likely reason is either wrong type (e.g. a video option with no video streams) or that it is a private option of some decoder which was not actually used for any stream.\nStream mapping:\n  Stream #0:0 -> #0:0 (h264 (native) -> h264 (libx264))\nPress [q] to stop, [?] for help\n[libx264 @ 000002386b000980] using cpu capabilities: MMX2 SSE2Fast SSSE3 SSE4.2 AVX FMA3 BMI2 AVX2\n[libx264 @ 000002386b000980] profile High, level 5.0, 4:2:0, 8-bit\n[libx264 @ 000002386b000980] 264 - core 165 r3222 b35605a - H.264/MPEG-4 AVC codec - Copyleft 2003-2025 - http://www.videolan.org/x264.html - options: cabac=1 ref=5 deblock=1:0:0 analyse=0x3:0x113 me=hex subme=8 psy=1 psy_rd=1.00:0.00 mixed_ref=1 me_range=16 chroma_me=1 trellis=2 8x8dct=1 cqm=0 deadzone=21,11 fast_pskip=1 chroma_qp_offset=-2 threads=18 lookahead_threads=3 sliced_threads=0 nr=0 decimate=1 interlaced=0 bluray_compat=0 constrained_intra=0 bframes=3 b_pyramid=2 b_adapt=1 b_bias=0 direct=3 weightb=1 open_gop=0 weightp=2 keyint=250 keyint_min=25 scenecut=40 intra_refresh=0 rc_lookahead=50 rc=cbr mbtree=1 bitrate=1000 ratetol=1.0 qcomp=0.60 qpmin=0 qpmax=69 qpstep=4 vbv_maxrate=1000 vbv_bufsize=1000 nal_hrd=none filler=0 ip_ratio=1.40 aq=1:1.00\nOutput #0, mp4, to 'C:\\Users\\Peter\\Desktop\\stuff\\MIUN\\quantitative_research\\video_compression\\compressed_videos\\BVI-HD\\h264\\1\\MartialArts_1920x1080_60fps_h264.mp4':\n  Metadata:\n    major_brand     : isom\n    minor_version   : 512\n    compatible_brands: isomiso2avc1mp41\n    encoder         : Lavf62.3.100\n  Stream #0:0(und): Video: h264 (avc1 / 0x31637661), yuv420p(tv, progressive), 1920x1080, q=2-31, 1000 kb/s, 60 fps, 15360 tbn (default)\n    Metadata:\n      encoder         : Lavc62.11.100 libx264\n      handler_name    : VideoHandler\n      vendor_id       : [0][0][0][0]\n    Side data:\n      cpb: bitrate max/min/avg: 1000000/0/1000000 buffer size: 1000000 vbv_delay: N/A\nframe=    0 fps=0.0 q=0.0 size=       0KiB time=N/A bitrate=N/A speed=N/A elapsed=0:00:00.53    \nframe=    0 fps=0.0 q=0.0 size=       0KiB time=N/A bitrate=N/A speed=N/A elapsed=0:00:01.10    \nframe=   36 fps= 22 q=41.0 size=       0KiB time=00:00:00.50 bitrate=   0.8kbits/s speed=0.299x elapsed=0:00:01.67    \nframe=   80 fps= 36 q=41.0 size=       0KiB time=00:00:01.30 bitrate=   0.3kbits/s speed=0.58x elapsed=0:00:02.24    \nframe=  116 fps= 42 q=41.0 size=       0KiB time=00:00:01.83 bitrate=   0.2kbits/s speed=0.661x elapsed=0:00:02.77    \nframe=  156 fps= 47 q=41.0 size=       0KiB time=00:00:02.50 bitrate=   0.2kbits/s speed=0.746x elapsed=0:00:03.35    \nframe=  190 fps= 48 q=42.0 size=     256KiB time=00:00:03.13 bitrate= 669.4kbits/s speed=0.797x elapsed=0:00:03.93    \nframe=  228 fps= 51 q=42.0 size=     256KiB time=00:00:03.70 bitrate= 566.9kbits/s speed=0.825x elapsed=0:00:04.48    \nframe=  297 fps= 59 q=-1.0 size=     512KiB time=00:00:04.91 bitrate= 853.2kbits/s speed=0.973x elapsed=0:00:05.05    \n[mp4 @ 000002386a6da600] Starting second pass: moving the moov atom to the beginning of the file\n[out#0/mp4 @ 000002386a6c9ac0] video:553KiB audio:0KiB subtitle:0KiB other streams:0KiB global headers:0KiB muxing overhead: 0.784900%\nframe=  300 fps= 59 q=-1.0 Lsize=     558KiB time=00:00:04.96 bitrate= 919.8kbits/s speed=0.98x elapsed=0:00:05.06    \n[libx264 @ 000002386b000980] frame I:2     Avg QP:31.08  size: 10348\n[libx264 @ 000002386b000980] frame P:75    Avg QP:32.61  size:  3744\n[libx264 @ 000002386b000980] frame B:223   Avg QP:37.40  size:  1185\n[libx264 @ 000002386b000980] consecutive B-frames:  0.7%  0.0%  2.0% 97.3%\n[libx264 @ 000002386b000980] mb I  I16..4: 36.5% 63.0%  0.6%\n[libx264 @ 000002386b000980] mb P  I16..4:  4.4%  8.7%  0.0%  P16..4:  9.5%  0.5%  0.2%  0.0%  0.0%    skip:76.8%\n[libx264 @ 000002386b000980] mb B  I16..4:  0.1%  0.2%  0.0%  B16..8: 10.4%  0.3%  0.0%  direct: 0.0%  skip:89.0%  L0:39.7% L1:60.0% BI: 0.3%\n[libx264 @ 000002386b000980] 8x8 transform intra:65.7% inter:95.6%\n[libx264 @ 000002386b000980] direct mvs  spatial:95.5% temporal:4.5%\n[libx264 @ 000002386b000980] coded y,uvDC,uvAC intra: 4.9% 15.5% 0.2% inter: 0.1% 0.4% 0.0%\n[libx264 @ 000002386b000980] i16 v,h,dc,p: 34% 41%  9% 15%\n[libx264 @ 000002386b000980] i8 v,h,dc,ddl,ddr,vr,hd,vl,hu: 13%  8% 66%  2%  3%  3%  3%  2%  1%\n[libx264 @ 000002386b000980] i4 v,h,dc,ddl,ddr,vr,hd,vl,hu: 19% 11% 31%  8% 11%  6%  5%  5%  4%\n[libx264 @ 000002386b000980] i8c dc,h,v,p: 80% 10%  9%  0%\n[libx264 @ 000002386b000980] Weighted P-Frames: Y:0.0% UV:0.0%\n[libx264 @ 000002386b000980] ref P L0: 55.3% 11.0% 21.3%  6.3%  6.1%\n[libx264 @ 000002386b000980] ref B L0: 77.8% 16.7%  4.4%  1.1%\n[libx264 @ 000002386b000980] ref B L1: 91.4%  8.6%\n[libx264 @ 000002386b000980] kb/s:905.29\n",
  "seconds": 5.37796950340271,
  "probe_out": {}
}